<svg xmlns="http://www.w3.org/2000/svg" xmlns:xlink="http://www.w3.org/1999/xlink" width="20" height="20" viewBox="0 0 20 20">
  <defs>
    <clipPath id="clip-T.RHE_icons_21">
      <rect width="20" height="20"/>
    </clipPath>
  </defs>
  <g id="T.RHE_icons_21" data-name="T.RHE_icons – 21" clip-path="url(#clip-T.RHE_icons_21)">
    <rect width="20" height="20" fill="transparent"/>
    <g id="T.RHE-icon">
      <rect id="background" width="20" height="20" fill="none"/>
      <g id="Dribbble-Light-Preview" transform="translate(0 2)">
        <g id="icons" transform="translate(-4 -7361)">
          <path id="twitter-_154_" data-name="twitter-[#154]" d="M10.29,7377a11.5,11.5,0,0,0,11.675-11.495c0-.175,0-.35-.012-.522A8.273,8.273,0,0,0,24,7362.892a8.27,8.27,0,0,1-2.356.636,4.069,4.069,0,0,0,1.8-2.235,8.3,8.3,0,0,1-2.606.981,4.153,4.153,0,0,0-5.806-.175,4.005,4.005,0,0,0-1.187,3.86,11.717,11.717,0,0,1-8.457-4.221,4,4,0,0,0,1.271,5.392,4.121,4.121,0,0,1-1.863-.5v.051a4.058,4.058,0,0,0,3.292,3.959,4.142,4.142,0,0,1-1.852.069,4.1,4.1,0,0,0,3.833,2.806,8.314,8.314,0,0,1-5.1,1.733,8.5,8.5,0,0,1-.977-.058A11.752,11.752,0,0,0,10.29,7377" fill="#B3B5AC"/>
        </g>
      </g>
    </g>
  </g>
</svg>
