<svg xmlns="http://www.w3.org/2000/svg" xmlns:xlink="http://www.w3.org/1999/xlink" width="361" height="40" viewBox="0 0 361 40">
  <defs>
    <clipPath id="clip-T.RHE_LogoMB_27">
      <rect width="361" height="40"/>
    </clipPath>
  </defs>
  <g id="T.RHE_LogoMB_27" data-name="T.RHE_LogoMB – 27" clip-path="url(#clip-T.RHE_LogoMB_27)">
    <rect width="361" height="40" fill="transparent"/>
    <g id="Component_36_1" data-name="Component 36 – 1">
      <path id="Path_2931" data-name="Path 2931" d="M0,0V40H40V0ZM1.88,1.88h8.577v.041H18.13A10.911,10.911,0,0,1,29.012,14.227H22.239A12.838,12.838,0,0,0,15.7,38.12H1.88ZM28.618,16.107A10.987,10.987,0,0,1,18.13,23.862H11.751a10.987,10.987,0,0,1,10.488-7.756ZM38.11,38.12h-8.2v-.072H22.239A10.911,10.911,0,0,1,11.358,25.742H18.13A12.838,12.838,0,0,0,24.722,1.88H38.11Z" fill="#B3B5AC"/>
      <g id="Group_3037" data-name="Group 3037" transform="translate(55.518 11.423)" fill="#B3B5AC">
        <path id="Path_2932" data-name="Path 2932" d="M54.046,13.006H60.74V29.7h1.906v-16.7H69.34V11.343H54.046Z" transform="translate(-54.046 -11.114)"/>
        <path id="Path_2933" data-name="Path 2933" d="M86.828,19.583H75.435v-8.24H73.542V29.7h1.893V21.246H86.828V29.7h1.906V11.343H86.828Z" transform="translate(-53.516 -11.114)"/>
        <path id="Path_2934" data-name="Path 2934" d="M96.759,21.31H104.9V19.634H96.759V13.006h8.355V11.343H94.866V29.7h10.453V28.04H96.759Z" transform="translate(-52.935 -11.114)"/>
        <path id="Path_2935" data-name="Path 2935" d="M128.262,20.611a4.573,4.573,0,0,0,3.1-4.4,4.387,4.387,0,0,0-1.615-3.564,7.051,7.051,0,0,0-4.558-1.3h-4.83V29.7h1.894V21.145h2.156a4.2,4.2,0,0,1,2.394.561,11.837,11.837,0,0,1,2.357,2.987L132.35,29.7H134.6l-4.3-6.566A11.2,11.2,0,0,0,128.262,20.611Zm-6.005-7.6h2.655a5.471,5.471,0,0,1,3.332.868,2.774,2.774,0,0,1,1.112,2.364,2.8,2.8,0,0,1-1.094,2.383,5.394,5.394,0,0,1-3.3.86h-2.707Z" transform="translate(-52.241 -11.114)"/>
        <path id="Path_2936" data-name="Path 2936" d="M139.862,21.31H148V19.634h-8.138V13.006h8.355V11.343H137.969V29.7h10.453V28.04h-8.559Z" transform="translate(-51.762 -11.114)"/>
        <path id="Path_2937" data-name="Path 2937" d="M159.841,11.219l-8.486,18.488h2.012l2.814-6.171h8.4l2.824,6.171h2.012l-8.487-18.488Zm3.976,10.654h-6.878l3.433-7.531Z" transform="translate(-51.398 -11.117)"/>
        <path id="Path_2938" data-name="Path 2938" d="M175.271,11.343h-1.893V29.7H184.1V28.04h-8.828Z" transform="translate(-50.798 -11.114)"/>
        <path id="Path_2939" data-name="Path 2939" d="M211.652,19.583H200.259v-8.24h-1.893V29.7h1.893V21.246h11.393V29.7h1.906V11.343h-1.906Z" transform="translate(-50.118 -11.114)"/>
        <path id="Path_2940" data-name="Path 2940" d="M228.629,11.12a9.522,9.522,0,0,0-6.867,2.735,9,9,0,0,0-2.819,6.68,8.989,8.989,0,0,0,2.819,6.669,10.018,10.018,0,0,0,13.759,0,8.968,8.968,0,0,0,2.831-6.669,8.98,8.98,0,0,0-2.831-6.68A9.579,9.579,0,0,0,228.629,11.12Zm.051,17.029a7.556,7.556,0,0,1-5.485-2.206,7.324,7.324,0,0,1-2.243-5.407,7.331,7.331,0,0,1,2.243-5.418,7.548,7.548,0,0,1,5.485-2.206,7.456,7.456,0,0,1,5.446,2.205,7.379,7.379,0,0,1,2.217,5.419,7.368,7.368,0,0,1-2.217,5.407A7.46,7.46,0,0,1,228.68,28.149Z" transform="translate(-49.558 -11.12)"/>
        <path id="Path_2941" data-name="Path 2941" d="M252.02,19.484l-6.7-8.141h-1.759V29.7h1.894V14.339l6.559,8.028,6.532-8.026V29.7h1.907V11.343H258.68Z" transform="translate(-48.888 -11.114)"/>
        <path id="Path_2942" data-name="Path 2942" d="M268.4,21.31h8.138V19.634H268.4V13.006h8.355V11.343H266.5V29.7h10.453V28.04H268.4Z" transform="translate(-48.263 -11.114)"/>
        <path id="Path_2943" data-name="Path 2943" d="M293.919,21.31h8.138V19.634h-8.138V13.006h8.355V11.343H292.026V29.7h10.453V28.04h-8.56Z" transform="translate(-47.568 -11.114)"/>
        <path id="Path_2944" data-name="Path 2944" d="M313.971,11.343h-6.5V29.7h6.746a9.668,9.668,0,0,0,7.2-2.6,9.05,9.05,0,0,0,2.544-6.574,8.983,8.983,0,0,0-2.572-6.619C319.683,12.207,317.188,11.343,313.971,11.343Zm7.983,9.186a7.085,7.085,0,0,1-2.223,5.451,7.969,7.969,0,0,1-5.593,2.06h-4.777V13.006h4.687a7.962,7.962,0,0,1,5.711,2.1A7.193,7.193,0,0,1,321.954,20.529Z" transform="translate(-47.148 -11.114)"/>
        <rect id="Rectangle_278" data-name="Rectangle 278" width="1.893" height="18.361" transform="translate(282.722 0.229)"/>
        <path id="Path_2945" data-name="Path 2945" d="M335.664,11.343v1.663h6.694V29.7h1.906v-16.7h6.694V11.343Z" transform="translate(-46.38 -11.114)"/>
      </g>
    </g>
  </g>
</svg>
